<svg xmlns="http://www.w3.org/2000/svg" xmlns:xlink="http://www.w3.org/1999/xlink" width="1080" zoomAndPan="magnify" viewBox="0 0 810 809.999993" height="1080" preserveAspectRatio="xMidYMid meet" version="1.0"><path fill="#000000" d="M 561.023438 335.554688 C 556.628906 335.554688 551.378906 336.238281 546.386719 337.152344 C 528.226562 274.957031 471.382812 231.492188 404.929688 231.492188 C 338.46875 231.492188 281.632812 274.957031 263.472656 337.152344 C 258.480469 336.238281 253.234375 335.554688 248.835938 335.554688 C 196.242188 335.554688 153.445312 378.351562 153.445312 430.945312 C 153.445312 483.539062 196.242188 526.335938 248.835938 526.335938 L 561.023438 526.335938 C 613.617188 526.335938 656.414062 483.539062 656.414062 430.945312 C 656.414062 378.351562 613.617188 335.554688 561.023438 335.554688 Z M 561.023438 491.648438 L 248.835938 491.648438 C 215.363281 491.648438 188.132812 464.410156 188.132812 430.945312 C 188.132812 397.480469 215.363281 370.242188 248.835938 370.242188 C 251.238281 370.242188 255.105469 370.832031 259.191406 371.648438 L 259.191406 387.585938 C 259.191406 397.160156 266.960938 404.929688 276.535156 404.929688 C 286.109375 404.929688 293.878906 397.160156 293.878906 387.585938 L 293.878906 359.609375 C 303.207031 305.410156 349.707031 266.179688 404.929688 266.179688 C 460.179688 266.179688 506.695312 305.453125 516 359.699219 L 516 387.585938 C 516 397.160156 523.769531 404.929688 533.34375 404.929688 C 542.925781 404.929688 550.6875 397.160156 550.6875 387.585938 L 550.6875 371.65625 C 554.761719 370.839844 558.648438 370.242188 561.023438 370.242188 C 594.488281 370.242188 621.726562 397.480469 621.726562 430.945312 C 621.726562 464.410156 594.488281 491.648438 561.023438 491.648438 Z M 561.023438 491.648438 " fill-opacity="1" fill-rule="nonzero"/></svg>