<svg xmlns="http://www.w3.org/2000/svg" xmlns:xlink="http://www.w3.org/1999/xlink" width="1080" zoomAndPan="magnify" viewBox="0 0 810 809.999993" height="1080" preserveAspectRatio="xMidYMid meet" version="1.0"><defs><clipPath id="128d06661c"><path d="M 308.699219 234.132812 L 501.449219 234.132812 L 501.449219 524 L 308.699219 524 Z M 308.699219 234.132812 " clip-rule="nonzero"/></clipPath></defs><g clip-path="url(#128d06661c)"><path fill="#000000" d="M 405.003906 234.796875 C 411.210938 261.320312 418.335938 282.503906 426.261719 298.234375 C 434.1875 313.964844 446.324219 331.007812 462.597656 349.394531 L 469.605469 357.203125 C 490.867188 380.855469 501.472656 404.578125 501.472656 428.234375 C 501.472656 454.425781 492.019531 476.878906 473.085938 495.59375 C 454.082031 514.3125 431.4375 523.714844 405.050781 523.714844 C 378.734375 523.714844 356.132812 514.3125 337.132812 495.59375 C 318.175781 476.878906 308.699219 454.425781 308.699219 428.234375 C 308.699219 404.578125 319.304688 380.855469 340.566406 357.203125 L 347.574219 349.394531 C 363.824219 331.007812 375.957031 313.964844 383.90625 298.234375 C 391.808594 282.503906 398.886719 261.320312 405.003906 234.796875 Z M 341.175781 414.171875 C 340.683594 408.8125 344.65625 404.0625 350.019531 403.566406 C 355.402344 403.074219 360.15625 407.046875 360.625 412.410156 C 361.847656 425.386719 364.695312 437.355469 370.125 447.675781 C 375.371094 457.644531 383.179688 466.226562 394.46875 472.835938 C 399.125 475.5625 400.675781 481.558594 397.949219 486.191406 C 395.21875 490.847656 389.222656 492.398438 384.589844 489.671875 C 369.890625 481.066406 359.707031 469.871094 352.816406 456.777344 C 346.113281 444.03125 342.632812 429.621094 341.175781 414.171875 Z M 341.175781 414.171875 " fill-opacity="1" fill-rule="evenodd"/></g></svg>