<svg xmlns="http://www.w3.org/2000/svg" xmlns:xlink="http://www.w3.org/1999/xlink" width="1080" zoomAndPan="magnify" viewBox="0 0 810 809.999993" height="1080" preserveAspectRatio="xMidYMid meet" version="1.0"><path fill="#000000" d="M 519.839844 359.804688 C 466.984375 359.804688 423.980469 316.804688 423.980469 263.945312 C 423.980469 253.363281 415.390625 244.773438 404.808594 244.773438 C 330.804688 244.773438 270.605469 304.976562 270.605469 378.976562 C 270.605469 452.980469 330.804688 513.179688 404.808594 513.179688 C 478.8125 513.179688 539.011719 452.980469 539.011719 378.976562 C 539.011719 368.394531 530.421875 359.804688 519.839844 359.804688 Z M 404.808594 474.835938 C 351.953125 474.835938 308.949219 431.835938 308.949219 378.976562 C 308.949219 332.121094 342.742188 293 387.246094 284.730469 C 396.199219 342.109375 441.667969 387.578125 499.058594 396.539062 C 490.785156 441.046875 451.675781 474.835938 404.808594 474.835938 Z M 404.808594 474.835938 " fill-opacity="1" fill-rule="nonzero"/></svg>