<svg xmlns="http://www.w3.org/2000/svg" xmlns:xlink="http://www.w3.org/1999/xlink" width="1080" zoomAndPan="magnify" viewBox="0 0 810 809.999993" height="1080" preserveAspectRatio="xMidYMid meet" version="1.0"><path fill="#000000" d="M 491.410156 299.191406 C 488.976562 299.191406 486.078125 299.570312 483.308594 300.074219 C 473.269531 265.671875 441.828125 241.628906 405.066406 241.628906 C 368.304688 241.628906 336.863281 265.671875 326.820312 300.074219 C 324.058594 299.570312 321.15625 299.191406 318.722656 299.191406 C 289.632812 299.191406 265.957031 322.867188 265.957031 351.957031 C 265.957031 381.050781 289.632812 404.722656 318.722656 404.722656 L 352.300781 404.722656 L 352.300781 481.472656 C 352.300781 486.769531 356.597656 491.066406 361.894531 491.066406 C 367.191406 491.066406 371.488281 486.769531 371.488281 481.472656 L 371.488281 404.722656 L 438.644531 404.722656 L 438.644531 481.472656 C 438.644531 486.769531 442.941406 491.066406 448.238281 491.066406 C 453.535156 491.066406 457.832031 486.769531 457.832031 481.472656 L 457.832031 404.722656 L 491.410156 404.722656 C 520.503906 404.722656 544.175781 381.050781 544.175781 351.957031 C 544.175781 322.867188 520.503906 299.191406 491.410156 299.191406 Z M 491.410156 385.535156 L 318.722656 385.535156 C 300.214844 385.535156 285.144531 370.46875 285.144531 351.957031 C 285.144531 333.449219 300.214844 318.378906 318.722656 318.378906 C 320.054688 318.378906 322.191406 318.707031 324.445312 319.15625 L 324.445312 327.972656 C 324.445312 333.269531 328.746094 337.566406 334.039062 337.566406 C 339.335938 337.566406 343.632812 333.269531 343.632812 327.972656 L 343.632812 312.535156 C 348.78125 282.539062 374.507812 260.816406 405.066406 260.816406 C 435.625 260.816406 461.351562 282.539062 466.5 312.539062 L 466.5 327.972656 C 466.5 333.269531 470.796875 337.566406 476.09375 337.566406 C 481.394531 337.566406 485.6875 333.269531 485.6875 327.972656 L 485.6875 319.164062 C 487.945312 318.710938 490.097656 318.378906 491.410156 318.378906 C 509.921875 318.378906 524.988281 333.449219 524.988281 351.957031 C 524.988281 370.46875 509.921875 385.535156 491.410156 385.535156 Z M 491.410156 385.535156 " fill-opacity="1" fill-rule="nonzero"/><path fill="#000000" d="M 405.066406 414.316406 C 399.769531 414.316406 395.472656 418.617188 395.472656 423.910156 L 395.472656 510.253906 C 395.472656 515.550781 399.769531 519.847656 405.066406 519.847656 C 410.363281 519.847656 414.660156 515.550781 414.660156 510.253906 L 414.660156 423.910156 C 414.660156 418.617188 410.363281 414.316406 405.066406 414.316406 Z M 405.066406 414.316406 " fill-opacity="1" fill-rule="nonzero"/></svg>