<svg xmlns="http://www.w3.org/2000/svg" xmlns:xlink="http://www.w3.org/1999/xlink" width="1080" zoomAndPan="magnify" viewBox="0 0 810 809.999993" height="1080" preserveAspectRatio="xMidYMid meet" version="1.0"><path fill="#000000" d="M 522.316406 436.953125 L 495.335938 421.371094 L 510.691406 417.257812 C 515.324219 416.015625 518.074219 411.25 516.832031 406.621094 C 515.59375 401.988281 510.820312 399.214844 506.195312 400.476562 L 474.058594 409.085938 L 450.199219 395.3125 L 478.574219 387.707031 C 482.160156 386.746094 484.738281 383.621094 484.996094 379.914062 C 485.253906 376.214844 483.128906 372.761719 479.710938 371.316406 L 454.675781 360.738281 L 474.0625 349.542969 L 506.1875 358.148438 C 506.945312 358.351562 507.699219 358.449219 508.445312 358.449219 C 512.285156 358.449219 515.789062 355.882812 516.832031 352.003906 C 518.074219 347.371094 515.320312 342.605469 510.691406 341.367188 L 495.347656 337.257812 L 522.328125 321.683594 C 526.484375 319.28125 527.902344 313.972656 525.511719 309.816406 C 523.105469 305.65625 517.792969 304.234375 513.640625 306.636719 L 486.664062 322.207031 L 490.769531 306.875 C 492.011719 302.238281 489.257812 297.472656 484.628906 296.234375 C 479.960938 294.976562 475.230469 297.746094 473.988281 302.378906 L 465.386719 334.496094 L 446.003906 345.691406 L 449.351562 318.726562 C 449.785156 315.261719 448.101562 311.878906 445.078125 310.132812 C 442.058594 308.394531 438.273438 308.625 435.496094 310.726562 L 413.828125 327.105469 L 413.828125 304.726562 L 437.335938 281.21875 C 440.730469 277.828125 440.730469 272.328125 437.335938 268.9375 C 433.945312 265.542969 428.445312 265.542969 425.050781 268.9375 L 413.828125 280.160156 L 413.828125 249.003906 C 413.828125 244.207031 409.9375 240.316406 405.140625 240.316406 C 400.339844 240.316406 396.453125 244.207031 396.453125 249.003906 L 396.453125 280.164062 L 385.214844 268.921875 C 381.824219 265.53125 376.324219 265.53125 372.933594 268.921875 C 369.539062 272.3125 369.539062 277.816406 372.933594 281.207031 L 396.453125 304.734375 L 396.453125 327.101562 L 374.773438 310.695312 C 371.8125 308.457031 367.757812 308.347656 364.683594 310.417969 C 361.601562 312.492188 360.179688 316.292969 361.144531 319.875 L 368.753906 348.28125 L 344.894531 334.507812 L 336.277344 302.382812 C 335.042969 297.753906 330.273438 294.984375 325.640625 296.242188 C 321.007812 297.484375 318.257812 302.25 319.5 306.878906 L 323.609375 322.214844 L 296.628906 306.640625 C 292.464844 304.238281 287.160156 305.664062 284.761719 309.820312 C 282.363281 313.976562 283.785156 319.289062 287.941406 321.6875 L 314.917969 337.257812 L 299.582031 341.367188 C 294.949219 342.609375 292.199219 347.375 293.441406 352.003906 C 294.480469 355.890625 297.988281 358.449219 301.828125 358.449219 C 302.570312 358.441406 303.332031 358.351562 304.082031 358.148438 L 336.199219 349.542969 L 360.058594 363.316406 L 331.695312 370.917969 C 328.113281 371.878906 325.53125 375.007812 325.28125 378.710938 C 325.023438 382.410156 327.148438 385.867188 330.566406 387.308594 L 355.585938 397.890625 L 336.195312 409.082031 L 304.09375 400.476562 C 299.464844 399.222656 294.691406 401.988281 293.453125 406.621094 C 292.210938 411.25 294.960938 416.015625 299.597656 417.257812 L 314.917969 421.367188 L 287.949219 436.933594 C 283.792969 439.335938 282.375 444.644531 284.769531 448.800781 C 286.382812 451.589844 289.300781 453.144531 292.304688 453.144531 C 293.777344 453.144531 295.273438 452.773438 296.636719 451.980469 L 323.625 436.402344 L 319.511719 451.753906 C 318.269531 456.386719 321.019531 461.152344 325.65625 462.394531 C 326.40625 462.597656 327.164062 462.691406 327.90625 462.691406 C 331.738281 462.691406 335.25 460.128906 336.292969 456.25 L 344.902344 424.117188 L 364.277344 412.929688 L 360.929688 439.898438 C 360.496094 443.359375 362.179688 446.742188 365.203125 448.492188 C 368.226562 450.230469 372.007812 450 374.785156 447.898438 L 396.449219 431.519531 L 396.449219 453.902344 L 372.925781 477.421875 C 369.535156 480.816406 369.535156 486.316406 372.925781 489.707031 C 376.320312 493.097656 381.820312 493.097656 385.210938 489.707031 L 396.449219 478.46875 L 396.449219 509.628906 C 396.449219 514.421875 400.335938 518.316406 405.136719 518.316406 C 409.933594 518.316406 413.824219 514.421875 413.824219 509.628906 L 413.824219 478.476562 L 425.050781 489.707031 C 426.75 491.40625 428.96875 492.253906 431.195312 492.253906 C 433.417969 492.253906 435.636719 491.40625 437.335938 489.707031 C 440.730469 486.316406 440.730469 480.816406 437.335938 477.421875 L 413.824219 453.910156 L 413.824219 431.53125 L 435.515625 447.9375 C 437.058594 449.105469 438.90625 449.695312 440.753906 449.695312 C 442.449219 449.695312 444.140625 449.207031 445.605469 448.214844 C 448.6875 446.140625 450.105469 442.339844 449.144531 438.753906 L 441.523438 410.367188 L 465.386719 424.148438 L 473.984375 456.253906 C 475.023438 460.140625 478.53125 462.699219 482.371094 462.699219 C 483.117188 462.699219 483.871094 462.601562 484.628906 462.398438 C 489.257812 461.160156 492.011719 456.394531 490.769531 451.761719 L 486.667969 436.433594 L 513.632812 452.003906 C 515.007812 452.792969 516.496094 453.167969 517.96875 453.167969 C 520.972656 453.167969 523.890625 451.613281 525.5 448.824219 C 527.898438 444.664062 526.480469 439.351562 522.316406 436.953125 Z M 449.648438 377.46875 L 428.917969 383.023438 L 422.492188 379.316406 L 435.816406 371.621094 Z M 429.570312 336.972656 L 427.132812 356.570312 L 413.820312 364.257812 L 413.820312 348.886719 Z M 384.460938 339.824219 L 396.445312 348.890625 L 396.445312 364.277344 L 390.015625 360.566406 Z M 360.601562 381.160156 L 381.316406 375.609375 L 387.734375 379.316406 L 374.421875 387.007812 Z M 380.679688 421.652344 L 383.113281 402.050781 L 396.449219 394.351562 L 396.449219 409.734375 Z M 425.804688 418.808594 L 413.824219 409.75 L 413.824219 394.375 L 420.238281 398.085938 Z M 425.804688 418.808594 " fill-opacity="1" fill-rule="nonzero"/></svg>