<svg xmlns="http://www.w3.org/2000/svg" xmlns:xlink="http://www.w3.org/1999/xlink" width="1080" zoomAndPan="magnify" viewBox="0 0 810 809.999993" height="1080" preserveAspectRatio="xMidYMid meet" version="1.0"><defs><clipPath id="61d7e3d2e0"><path d="M 270 237.882812 L 540 237.882812 L 540 520.632812 L 270 520.632812 Z M 270 237.882812 " clip-rule="nonzero"/></clipPath></defs><path fill="#000000" d="M 405.078125 307.554688 C 365.542969 307.554688 333.378906 339.71875 333.378906 379.257812 C 333.378906 418.792969 365.542969 450.957031 405.078125 450.957031 C 444.613281 450.957031 476.777344 418.792969 476.777344 379.257812 C 476.777344 339.722656 444.613281 307.554688 405.078125 307.554688 Z M 405.078125 307.554688 " fill-opacity="1" fill-rule="nonzero"/><g clip-path="url(#61d7e3d2e0)"><path fill="#000000" d="M 511.898438 379.257812 L 538.152344 343.972656 C 539.949219 341.558594 540.460938 338.429688 539.53125 335.570312 C 538.605469 332.710938 536.347656 330.480469 533.476562 329.582031 L 491.496094 316.46875 L 491.996094 272.488281 C 492.03125 269.484375 490.605469 266.648438 488.175781 264.882812 C 485.742188 263.113281 482.605469 262.636719 479.757812 263.597656 L 438.085938 277.664062 L 412.640625 241.789062 C 410.902344 239.339844 408.085938 237.882812 405.078125 237.882812 C 402.070312 237.882812 399.253906 239.339844 397.511719 241.789062 L 372.070312 277.664062 L 330.398438 263.597656 C 327.546875 262.636719 324.410156 263.113281 321.980469 264.882812 C 319.546875 266.648438 318.121094 269.484375 318.15625 272.492188 L 318.660156 316.46875 L 276.675781 329.582031 C 273.808594 330.480469 271.550781 332.710938 270.621094 335.570312 C 269.695312 338.429688 270.207031 341.558594 272.003906 343.972656 L 298.257812 379.257812 L 272.003906 414.542969 C 270.207031 416.953125 269.695312 420.085938 270.621094 422.945312 C 271.550781 425.804688 273.808594 428.035156 276.675781 428.929688 L 318.660156 442.042969 L 318.15625 486.023438 C 318.121094 489.027344 319.546875 491.863281 321.980469 493.632812 C 324.410156 495.398438 327.546875 495.878906 330.398438 494.917969 L 372.070312 480.847656 L 397.511719 516.722656 C 399.253906 519.175781 402.070312 520.632812 405.078125 520.632812 C 408.085938 520.632812 410.902344 519.175781 412.640625 516.722656 L 438.085938 480.847656 L 479.757812 494.917969 C 482.605469 495.878906 485.742188 495.398438 488.175781 493.632812 C 490.609375 491.863281 492.03125 489.027344 492 486.023438 L 491.496094 442.042969 L 533.476562 428.929688 C 536.347656 428.035156 538.605469 425.804688 539.535156 422.945312 C 540.460938 420.085938 539.949219 416.953125 538.152344 414.542969 Z M 405.078125 469.503906 C 355.316406 469.503906 314.828125 429.019531 314.828125 379.257812 C 314.828125 329.492188 355.316406 289.007812 405.078125 289.007812 C 454.839844 289.007812 495.328125 329.492188 495.328125 379.257812 C 495.328125 429.019531 454.839844 469.503906 405.078125 469.503906 Z M 405.078125 469.503906 " fill-opacity="1" fill-rule="nonzero"/></g></svg>