<svg xmlns="http://www.w3.org/2000/svg" xmlns:xlink="http://www.w3.org/1999/xlink" width="1080" zoomAndPan="magnify" viewBox="0 0 810 809.999993" height="1080" preserveAspectRatio="xMidYMid meet" version="1.0"><path fill="#000000" d="M 531.210938 410.445312 C 536.0625 400.613281 538.625 389.808594 538.625 378.691406 C 538.625 339.066406 506.390625 306.832031 466.765625 306.832031 C 443.148438 306.832031 421.109375 318.539062 407.757812 337.734375 C 406.894531 337.710938 406.042969 337.628906 405.175781 337.628906 C 365.835938 337.628906 332.191406 363.351562 321.453125 400.164062 C 318.492188 399.628906 315.386719 399.222656 312.785156 399.222656 C 281.648438 399.222656 256.324219 424.550781 256.324219 455.683594 C 256.324219 486.8125 281.648438 512.144531 312.785156 512.144531 L 497.566406 512.144531 C 528.695312 512.144531 554.027344 486.8125 554.027344 455.683594 C 554.027344 437.164062 545.023438 420.75 531.210938 410.445312 Z M 466.765625 327.363281 C 495.066406 327.363281 518.09375 350.386719 518.09375 378.691406 C 518.09375 386.636719 516.246094 394.34375 512.773438 401.363281 C 507.925781 400 502.835938 399.222656 497.566406 399.222656 C 494.957031 399.222656 491.859375 399.628906 488.890625 400.164062 C 480.636719 371.878906 458.84375 350.199219 431.351562 341.648438 C 440.785156 332.648438 453.402344 327.363281 466.765625 327.363281 Z M 497.566406 491.613281 L 312.785156 491.613281 C 292.976562 491.613281 276.855469 475.488281 276.855469 455.683594 C 276.855469 435.875 292.976562 419.753906 312.785156 419.753906 C 314.207031 419.753906 316.496094 420.101562 318.910156 420.585938 L 318.910156 430.019531 C 318.910156 435.683594 323.507812 440.285156 329.175781 440.285156 C 334.839844 440.285156 339.441406 435.683594 339.441406 430.019531 L 339.441406 413.496094 C 344.945312 381.402344 372.472656 358.160156 405.175781 358.160156 C 437.882812 358.160156 465.414062 381.410156 470.910156 413.523438 L 470.910156 430.019531 C 470.910156 435.683594 475.511719 440.285156 481.175781 440.285156 C 486.84375 440.285156 491.441406 435.683594 491.441406 430.019531 L 491.441406 420.589844 C 493.859375 420.105469 496.160156 419.753906 497.566406 419.753906 C 517.375 419.753906 533.496094 435.875 533.496094 455.683594 C 533.496094 475.488281 517.375 491.613281 497.566406 491.613281 Z M 497.566406 491.613281 " fill-opacity="1" fill-rule="nonzero"/><path fill="#000000" d="M 466.765625 286.300781 C 472.429688 286.300781 477.03125 281.699219 477.03125 276.035156 L 477.03125 255.503906 C 477.03125 249.835938 472.429688 245.238281 466.765625 245.238281 C 461.09375 245.238281 456.5 249.835938 456.5 255.503906 L 456.5 276.035156 C 456.5 281.699219 461.09375 286.300781 466.765625 286.300781 Z M 466.765625 286.300781 " fill-opacity="1" fill-rule="nonzero"/><path fill="#000000" d="M 589.953125 368.425781 L 569.421875 368.425781 C 563.75 368.425781 559.15625 373.023438 559.15625 378.691406 C 559.15625 384.355469 563.75 388.957031 569.421875 388.957031 L 589.953125 388.957031 C 595.617188 388.957031 600.21875 384.355469 600.21875 378.691406 C 600.21875 373.023438 595.617188 368.425781 589.953125 368.425781 Z M 589.953125 368.425781 " fill-opacity="1" fill-rule="nonzero"/><path fill="#000000" d="M 539.359375 316.363281 C 541.984375 316.363281 544.609375 315.363281 546.617188 313.355469 L 561.132812 298.839844 C 565.140625 294.832031 565.140625 288.332031 561.132812 284.324219 C 557.121094 280.316406 550.625 280.316406 546.617188 284.324219 L 532.101562 298.839844 C 528.089844 302.847656 528.089844 309.347656 532.101562 313.355469 C 534.101562 315.363281 536.730469 316.363281 539.359375 316.363281 Z M 539.359375 316.363281 " fill-opacity="1" fill-rule="nonzero"/><path fill="#000000" d="M 386.914062 313.355469 C 388.921875 315.363281 391.542969 316.363281 394.171875 316.363281 C 396.796875 316.363281 399.421875 315.363281 401.429688 313.355469 C 405.4375 309.347656 405.4375 302.847656 401.429688 298.839844 L 386.914062 284.324219 C 382.90625 280.316406 376.40625 280.316406 372.398438 284.324219 C 368.390625 288.332031 368.390625 294.832031 372.398438 298.839844 Z M 386.914062 313.355469 " fill-opacity="1" fill-rule="nonzero"/></svg>