<svg xmlns="http://www.w3.org/2000/svg" xmlns:xlink="http://www.w3.org/1999/xlink" width="1080" zoomAndPan="magnify" viewBox="0 0 810 809.999993" height="1080" preserveAspectRatio="xMidYMid meet" version="1.0"><path fill="#000000" d="M 478.828125 316.042969 C 481.496094 316.042969 484.164062 315.027344 486.199219 312.988281 L 500.9375 298.25 C 505.007812 294.179688 505.007812 287.582031 500.9375 283.511719 C 496.871094 279.441406 490.265625 279.441406 486.203125 283.511719 L 471.460938 298.253906 C 467.390625 302.324219 467.390625 308.921875 471.460938 312.988281 C 473.492188 315.027344 476.160156 316.042969 478.828125 316.042969 Z M 311.339844 379.316406 C 311.339844 373.5625 306.671875 368.894531 300.917969 368.894531 L 280.074219 368.894531 C 274.320312 368.894531 269.652344 373.5625 269.652344 379.316406 C 269.652344 385.066406 274.320312 389.738281 280.074219 389.738281 L 300.917969 389.738281 C 306.671875 389.738281 311.339844 385.066406 311.339844 379.316406 Z M 324.074219 445.640625 L 309.332031 460.382812 C 305.261719 464.453125 305.261719 471.046875 309.332031 475.117188 C 311.367188 477.15625 314.035156 478.171875 316.703125 478.171875 C 319.371094 478.171875 322.039062 477.15625 324.070312 475.117188 L 338.8125 460.375 C 342.882812 456.304688 342.882812 449.710938 338.8125 445.640625 C 334.746094 441.570312 328.140625 441.570312 324.074219 445.640625 Z M 324.074219 312.988281 C 326.105469 315.027344 328.773438 316.042969 331.441406 316.042969 C 334.109375 316.042969 336.777344 315.027344 338.8125 312.988281 C 342.882812 308.921875 342.882812 302.324219 338.8125 298.253906 L 324.070312 283.511719 C 320.003906 279.441406 313.398438 279.441406 309.332031 283.511719 C 305.261719 287.582031 305.261719 294.179688 309.332031 298.25 Z M 405.136719 285.519531 C 410.890625 285.519531 415.558594 280.847656 415.558594 275.097656 L 415.558594 254.253906 C 415.558594 248.5 410.890625 243.832031 405.136719 243.832031 C 399.382812 243.832031 394.714844 248.5 394.714844 254.253906 L 394.714844 275.097656 C 394.714844 280.847656 399.382812 285.519531 405.136719 285.519531 Z M 530.199219 368.894531 L 509.355469 368.894531 C 503.601562 368.894531 498.933594 373.5625 498.933594 379.316406 C 498.933594 385.066406 503.601562 389.738281 509.355469 389.738281 L 530.199219 389.738281 C 535.953125 389.738281 540.621094 385.066406 540.621094 379.316406 C 540.621094 373.5625 535.953125 368.894531 530.199219 368.894531 Z M 486.199219 445.640625 C 482.132812 441.570312 475.527344 441.570312 471.460938 445.640625 C 467.390625 449.710938 467.390625 456.304688 471.460938 460.375 L 486.203125 475.117188 C 488.234375 477.15625 490.902344 478.171875 493.570312 478.171875 C 496.238281 478.171875 498.902344 477.15625 500.9375 475.117188 C 505.007812 471.046875 505.007812 464.453125 500.9375 460.382812 Z M 405.136719 473.113281 C 399.382812 473.113281 394.714844 477.78125 394.714844 483.535156 L 394.714844 504.378906 C 394.714844 510.128906 399.382812 514.800781 405.136719 514.800781 C 410.890625 514.800781 415.558594 510.128906 415.558594 504.378906 L 415.558594 483.535156 C 415.558594 477.78125 410.890625 473.113281 405.136719 473.113281 Z M 405.136719 306.363281 C 364.90625 306.363281 332.183594 339.085938 332.183594 379.316406 C 332.183594 419.542969 364.90625 452.269531 405.136719 452.269531 C 445.363281 452.269531 478.089844 419.542969 478.089844 379.316406 C 478.089844 339.085938 445.363281 306.363281 405.136719 306.363281 Z M 405.136719 431.425781 C 376.402344 431.425781 353.027344 408.046875 353.027344 379.316406 C 353.027344 350.582031 376.402344 327.207031 405.136719 327.207031 C 433.871094 327.207031 457.246094 350.582031 457.246094 379.316406 C 457.246094 408.046875 433.871094 431.425781 405.136719 431.425781 Z M 405.136719 431.425781 " fill-opacity="1" fill-rule="nonzero"/></svg>