<svg xmlns="http://www.w3.org/2000/svg" xmlns:xlink="http://www.w3.org/1999/xlink" width="1080" zoomAndPan="magnify" viewBox="0 0 810 809.999993" height="1080" preserveAspectRatio="xMidYMid meet" version="1.0"><path fill="#000000" d="M 415.367188 433.640625 L 415.367188 373.84375 C 415.367188 368.0625 410.675781 363.375 404.898438 363.375 C 399.113281 363.375 394.429688 368.0625 394.429688 373.84375 L 394.429688 433.640625 C 385.199219 437.683594 378.726562 446.886719 378.726562 457.59375 C 378.726562 472.023438 390.464844 483.765625 404.898438 483.765625 C 419.328125 483.765625 431.070312 472.023438 431.070312 457.59375 C 431.070312 446.886719 424.59375 437.683594 415.367188 433.640625 Z M 404.898438 462.828125 C 402.007812 462.828125 399.664062 460.480469 399.664062 457.59375 C 399.664062 454.703125 402.007812 452.359375 404.898438 452.359375 C 407.785156 452.359375 410.132812 454.703125 410.132812 457.59375 C 410.132812 460.480469 407.785156 462.828125 404.898438 462.828125 Z M 404.898438 462.828125 " fill-opacity="1" fill-rule="nonzero"/><path fill="#000000" d="M 446.820312 418.121094 L 446.773438 284.859375 C 446.773438 261.769531 427.988281 242.984375 404.898438 242.984375 C 381.808594 242.984375 363.023438 261.769531 363.023438 284.851562 L 362.96875 418.121094 C 352.972656 428.761719 347.320312 442.894531 347.320312 457.59375 C 347.320312 489.339844 373.152344 515.171875 404.898438 515.171875 C 436.644531 515.171875 462.476562 489.339844 462.476562 457.59375 C 462.476562 442.886719 456.824219 428.753906 446.820312 418.121094 Z M 404.898438 494.234375 C 384.699219 494.234375 368.257812 477.792969 368.257812 457.59375 C 368.257812 447.207031 372.695312 437.257812 380.4375 430.304688 C 382.644531 428.316406 383.90625 425.488281 383.90625 422.523438 L 383.960938 284.859375 C 383.960938 273.308594 393.351562 263.921875 404.898438 263.921875 C 416.445312 263.921875 425.835938 273.308594 425.835938 284.863281 L 425.882812 422.523438 C 425.882812 425.488281 427.144531 428.320312 429.359375 430.304688 C 437.09375 437.257812 441.539062 447.203125 441.539062 457.59375 C 441.539062 477.792969 425.097656 494.234375 404.898438 494.234375 Z M 404.898438 494.234375 " fill-opacity="1" fill-rule="nonzero"/></svg>