<svg xmlns="http://www.w3.org/2000/svg" xmlns:xlink="http://www.w3.org/1999/xlink" width="1080" zoomAndPan="magnify" viewBox="0 0 810 809.999993" height="1080" preserveAspectRatio="xMidYMid meet" version="1.0"><path fill="#000000" d="M 497.386719 304.136719 C 494.78125 304.136719 491.6875 304.542969 488.730469 305.078125 C 478.003906 268.324219 444.410156 242.636719 405.136719 242.636719 C 365.859375 242.636719 332.265625 268.324219 321.539062 305.078125 C 318.585938 304.542969 315.484375 304.136719 312.886719 304.136719 C 281.804688 304.136719 256.511719 329.429688 256.511719 360.511719 C 256.511719 391.59375 281.804688 416.886719 312.886719 416.886719 L 370.609375 416.886719 L 350.484375 447.078125 C 348.386719 450.21875 348.191406 454.261719 349.972656 457.597656 C 351.757812 460.929688 355.234375 463.011719 359.011719 463.011719 L 370.609375 463.011719 L 350.484375 493.203125 C 347.347656 497.914062 348.617188 504.277344 353.328125 507.414062 C 355.070312 508.582031 357.046875 509.136719 359 509.136719 C 362.3125 509.136719 365.5625 507.53125 367.539062 504.570312 L 398.289062 458.445312 C 400.386719 455.304688 400.582031 451.261719 398.800781 447.921875 C 397.011719 444.59375 393.539062 442.511719 389.761719 442.511719 L 378.164062 442.511719 L 395.246094 416.886719 L 421.855469 416.886719 L 411.976562 431.703125 C 409.882812 434.84375 409.6875 438.886719 411.464844 442.222656 C 413.257812 445.554688 416.734375 447.636719 420.511719 447.636719 L 432.109375 447.636719 L 422.234375 462.453125 C 419.097656 467.164062 420.367188 473.527344 425.078125 476.664062 C 426.820312 477.832031 428.796875 478.386719 430.75 478.386719 C 434.0625 478.386719 437.3125 476.78125 439.289062 473.820312 L 459.789062 443.070312 C 461.886719 439.929688 462.082031 435.886719 460.300781 432.546875 C 458.511719 429.21875 455.039062 427.136719 451.261719 427.136719 L 439.664062 427.136719 L 446.496094 416.886719 L 497.386719 416.886719 C 528.46875 416.886719 553.761719 391.59375 553.761719 360.511719 C 553.761719 329.429688 528.46875 304.136719 497.386719 304.136719 Z M 497.386719 396.386719 L 312.886719 396.386719 C 293.109375 396.386719 277.011719 380.289062 277.011719 360.511719 C 277.011719 340.734375 293.109375 324.636719 312.886719 324.636719 C 314.304688 324.636719 316.589844 324.984375 319 325.464844 L 319 334.886719 C 319 340.542969 323.585938 345.136719 329.25 345.136719 C 334.914062 345.136719 339.5 340.542969 339.5 334.886719 L 339.5 318.390625 C 345 286.34375 372.484375 263.136719 405.136719 263.136719 C 437.78125 263.136719 465.269531 286.34375 470.773438 318.394531 L 470.773438 334.886719 C 470.773438 340.542969 475.363281 345.136719 481.023438 345.136719 C 486.679688 345.136719 491.273438 340.542969 491.273438 334.886719 L 491.273438 325.472656 C 493.679688 324.988281 495.980469 324.636719 497.386719 324.636719 C 517.164062 324.636719 533.261719 340.734375 533.261719 360.511719 C 533.261719 380.289062 517.164062 396.386719 497.386719 396.386719 Z M 497.386719 396.386719 " fill-opacity="1" fill-rule="nonzero"/></svg>