<svg xmlns="http://www.w3.org/2000/svg" xmlns:xlink="http://www.w3.org/1999/xlink" width="1080" zoomAndPan="magnify" viewBox="0 0 810 809.999993" height="1080" preserveAspectRatio="xMidYMid meet" version="1.0"><path fill="#000000" d="M 443.386719 366.316406 L 251.191406 366.308594 C 244.121094 366.308594 238.378906 372.046875 238.378906 379.121094 C 238.378906 386.195312 244.121094 391.933594 251.191406 391.933594 L 443.386719 391.941406 C 468.109375 391.941406 488.230469 412.0625 488.230469 436.785156 C 488.230469 461.503906 468.109375 481.628906 443.386719 481.628906 C 436.308594 481.628906 430.574219 487.367188 430.574219 494.441406 C 430.574219 501.511719 436.308594 507.253906 443.386719 507.253906 C 482.242188 507.253906 513.855469 475.636719 513.855469 436.785156 C 513.855469 397.929688 482.242188 366.316406 443.386719 366.316406 Z M 443.386719 366.316406 " fill-opacity="1" fill-rule="nonzero"/><path fill="#000000" d="M 404.941406 404.753906 L 251.199219 404.753906 C 244.125 404.753906 238.386719 410.492188 238.386719 417.566406 C 238.386719 424.636719 244.125 430.378906 251.199219 430.378906 L 404.941406 430.378906 C 408.480469 430.378906 411.347656 433.246094 411.347656 436.785156 C 411.347656 440.320312 408.480469 443.191406 404.941406 443.191406 C 397.863281 443.191406 392.128906 448.929688 392.128906 456.003906 C 392.128906 463.074219 397.863281 468.816406 404.941406 468.816406 C 422.605469 468.816406 436.972656 454.445312 436.972656 436.785156 C 436.972656 419.121094 422.605469 404.753906 404.941406 404.753906 Z M 404.941406 404.753906 " fill-opacity="1" fill-rule="nonzero"/><path fill="#000000" d="M 539.480469 315.066406 C 532.40625 315.066406 526.667969 320.804688 526.667969 327.878906 C 526.667969 334.949219 532.40625 340.691406 539.480469 340.691406 C 543.015625 340.691406 545.886719 343.558594 545.886719 347.097656 C 545.886719 350.632812 543.015625 353.503906 539.480469 353.503906 L 513.855469 353.503906 C 506.777344 353.503906 501.042969 359.242188 501.042969 366.316406 C 501.042969 373.386719 506.777344 379.128906 513.855469 379.128906 L 539.480469 379.128906 C 557.140625 379.128906 571.511719 364.757812 571.511719 347.097656 C 571.511719 329.433594 557.140625 315.066406 539.480469 315.066406 Z M 539.480469 315.066406 " fill-opacity="1" fill-rule="nonzero"/><path fill="#000000" d="M 251.191406 353.496094 L 462.605469 353.503906 C 490.863281 353.503906 513.855469 330.511719 513.855469 302.253906 C 513.855469 273.996094 490.863281 251.003906 462.605469 251.003906 C 434.347656 251.003906 411.355469 273.996094 411.355469 302.253906 C 411.355469 309.324219 417.089844 315.066406 424.167969 315.066406 C 431.238281 315.066406 436.980469 309.324219 436.980469 302.253906 C 436.980469 288.121094 448.472656 276.628906 462.605469 276.628906 C 476.738281 276.628906 488.230469 288.121094 488.230469 302.253906 C 488.230469 316.382812 476.738281 327.878906 462.605469 327.878906 L 251.191406 327.871094 C 244.121094 327.871094 238.378906 333.609375 238.378906 340.683594 C 238.378906 347.757812 244.121094 353.496094 251.191406 353.496094 Z M 251.191406 353.496094 " fill-opacity="1" fill-rule="nonzero"/></svg>